<svg width="26" height="26" viewBox="0 0 26 26" fill="none" xmlns="http://www.w3.org/2000/svg">
<g clip-path="url(#clip0_2953_46)">
<path d="M4.48689 20.3884L2.81641 22.0364L3.95427 23.2967L5.62476 21.479L4.48689 20.3884Z" fill="#FD3501"/>
<path d="M3.97771 23.224C3.63877 22.8766 2.93668 22.1722 2.83984 22.1334L3.51772 21.3821L4.6798 22.5454L3.97771 23.224Z" fill="#DD2D00"/>
<path d="M4.50977 20.1218C4.86484 20.4611 5.6089 21.2027 5.74447 21.4547L14.3148 13.1904L12.7896 11.6636L4.50977 20.1218Z" fill="#EB975D"/>
<path d="M9.73926 6.06528L14.7991 1.07275L16.6875 2.52689L12.0876 7.15588L20.6337 15.5899L19.8348 16.2927L9.73926 6.06528Z" fill="#C5D9EC"/>
<path d="M4.46191 20.1461C4.87348 20.5823 5.73051 21.4742 5.86609 21.5517L6.44713 20.9943L5.55136 20.1461L13.468 12.318L12.7901 11.6394L4.46191 20.1461Z" fill="#B25E1E"/>
<path d="M9.64258 6.0894L14.7024 1.02417L15.8403 1.87241L10.5868 7.01035L9.64258 6.0894Z" fill="#A8C6E2"/>
<path d="M24.0717 9.96709L18.7697 15.2262L19.9076 16.2441L24.9917 11.3485L24.0717 9.96709Z" fill="#A8C6E2"/>
<path d="M11.3618 6.33166L10.3692 5.38647L9.57031 6.18625L10.5145 7.01026L11.3618 6.33166Z" fill="#8BB2D8"/>
<path d="M20.5132 15.42L19.5206 14.4749L18.7217 15.2746L19.6659 16.0986L20.5132 15.42Z" fill="#8BB2D8"/>
<path d="M17.7612 14.2326L18.8144 15.299M17.0592 13.5783L16.3086 12.827M10.5709 7.08313L9.6025 6.1137L14.735 1L15.8729 1.88594M10.5709 7.08313L13.7424 3.98097M10.5709 7.08313L13.1856 9.70057M14.735 3.01155L15.8729 1.88594M15.8729 1.88594L19.3107 4.56263L21.9496 7.18007L24.0975 10.0641M18.8144 15.299L19.8675 16.3653L25 11.2759L24.0975 10.0641M18.8144 15.299L24.0975 10.0641M12.8708 11.5667L14.4687 13.0935M12.8708 11.5667C12.8708 11.334 13.0807 10.2257 13.1856 9.70057M12.8708 11.5667L11.1185 13.3359M14.4687 13.0935L16.3086 12.827M14.4687 13.0935L14.2252 13.3359M13.1856 9.70057L16.3086 12.827M4.56684 20.2971L4.39737 20.1219L5.47755 19.0313M4.56684 20.2971L2.79951 22.0849L3.36844 22.6787M4.56684 20.2971L5.71008 21.479M5.71008 21.479L5.87417 21.6487L8.50365 19.0313M5.71008 21.479L3.93738 23.2725L3.36844 22.6787M5.47755 19.0313L7.30187 17.1894M5.47755 19.0313H8.29516M8.50365 19.0313L10.354 17.1894M8.50365 19.0313H8.29516M7.30187 17.1894L9.17419 15.299M7.30187 17.1894C7.32831 17.1627 7.74953 17.155 8.29516 17.1569M10.354 17.1894L12.2531 15.299M10.354 17.1894C10.3 17.188 10.243 17.1866 10.1835 17.1853M9.17419 15.299L11.1185 13.3359M9.17419 15.299H10.1835M12.2531 15.299L14.2252 13.3359M12.2531 15.299H12.0719M11.1185 13.3359H12.0719M14.2252 13.3359H12.0719M8.29516 19.0313V17.1569M8.29516 17.1569C8.89387 17.159 9.64238 17.1727 10.1835 17.1853M10.1835 17.1853V15.299M10.1835 15.299H12.0719M12.0719 15.299V13.3359M3.36844 22.6787L1.92796 22.9332C-0.420465 24.0238 2.33939 26.3019 3.09003 24.0238L3.36844 22.6787Z" stroke="black"/>
<path d="M19.7677 6.45181C18.0045 6.09193 16.5322 6.91451 16.6521 9.57077C16.789 10.5647 17.1656 11.0788 18.2784 11.5758C19.3797 10.5845 19.1751 8.91689 18.2327 7.95422" stroke="black"/>
<path d="M19.7675 6.45186C20.1169 8.20608 19.277 9.66037 16.638 9.55342C15.6509 9.42168 15.1418 9.04903 14.6531 7.94325C15.6374 6.84846 17.2797 7.03553 18.2346 7.95516" stroke="black"/>
<path d="M19.7867 6.21069L19.9804 6.23493L20.0046 6.40458L19.7383 6.47728L19.7867 6.21069Z" fill="black"/>
</g>
<defs>
<clipPath id="clip0_2953_46">
<rect width="26" height="26" fill="white"/>
</clipPath>
</defs>
</svg>
